mtllib materials.mtl
v 0.2347749 0.06814575 0.1235799
v 0.2199248 0.06897637 0.1233411
v 0.2202246 0.06843925 0.1028281
v 0.2350747 0.06760851 0.103067
v 0.2117753 0.05653387 0.1235479
v 0.2120751 0.05599678 0.1030349
v 0.2184759 0.04326077 0.1239934
v 0.2187757 0.04272373 0.1034804
v 0.233326 0.04243016 0.1242321
v 0.2336258 0.04189315 0.1037192
v 0.2414755 0.05487266 0.1240254
v 0.2417753 0.05433547 0.1035125
v -0.2128464 0.01580766 0.05138134
v -0.2128464 0.0424231 0.05138143
v -0.2128464 0.04242311 0.09130471
v -0.2128464 0.01580764 0.09130452
v 0.2130011 0.01580767 0.05138098
v 0.2130011 0.01580764 0.09130425
v 0.2130011 0.04242311 0.09130443
v 0.2130011 0.04242311 0.05138107
v -0.2128464 0.04242319 0.01811172
v -0.2128464 0.09565407 0.01811176
v -0.2527696 0.08234641 0.01811175
v -0.2660774 0.04242319 0.01811172
v 0.2130011 0.04242319 0.01811188
v 0.213001 0.04242317 0.111266
v 0.213001 -0.2237316 0.1112656
v 0.2130011 -0.2237316 0.01811137
v 0.2130011 0.09565407 0.01811187
v -0.2128464 0.04242317 0.1112659
v -0.2128464 0.09565407 0.1112659
v 0.213001 0.09565407 0.111266
v 0.2529242 0.08234629 0.111266
v 0.266232 0.04242317 0.1112661
v 0.2529243 0.08234632 0.01811188
v 0.266232 0.04242319 0.01811188
v 0.266232 -0.2237316 0.1112656
v 0.266232 -0.2237316 0.01811137
v -0.2527697 0.08234638 0.1112659
v -0.2660774 0.04242317 0.1112659
v 0.2130009 -0.2237308 0.01811166
v 0.2130009 -0.2769617 0.01811169
v 0.2529243 -0.263654 0.01811169
v 0.2662318 -0.2237308 0.01811168
v -0.2128464 -0.2237308 0.01811167
v -0.2128466 -0.2237308 0.1112658
v -0.2128466 0.04242393 0.1112653
v -0.2128465 0.04242393 0.01811121
v -0.2128466 -0.2769617 0.01811165
v 0.213001 -0.2237308 0.1112658
v 0.213001 -0.2769617 0.1112659
v -0.2128466 -0.2769617 0.1112658
v -0.2527699 -0.263654 0.1112658
v -0.2660775 -0.2237308 0.1112658
v -0.2527699 -0.2636539 0.01811161
v -0.2660773 -0.2237308 0.01811165
v -0.2660775 0.0424239 0.1112653
v -0.2660774 0.04242393 0.0181112
v 0.2529244 -0.2636541 0.1112659
v 0.266232 -0.2237308 0.1112659
v -0.2128464 -0.03742377 0.05138
v -0.2128464 -0.01080833 0.05138011
v -0.2128466 -0.01080836 0.0913034
v -0.2128466 -0.03742383 0.09130316
v 0.2130012 -0.03742398 0.05138215
v 0.2130009 -0.03742406 0.0913054
v 0.2130009 -0.01080857 0.09130562
v 0.2130012 -0.01080854 0.05138225
v -0.2128465 -0.2237308 0.05138113
v -0.2128465 -0.1971153 0.05138124
v -0.2128465 -0.1971154 0.09130452
v -0.2128465 -0.2237308 0.09130429
v 0.213001 -0.2237304 0.05138069
v 0.213001 -0.2237304 0.09130394
v 0.2130009 -0.1971149 0.09130415
v 0.213001 -0.1971149 0.05138079
v -0.2128465 -0.1039609 0.05138078
v -0.2128464 -0.07734551 0.05138084
v -0.2128464 -0.07734542 0.09130412
v -0.2128466 -0.1039609 0.09130394
v 0.213001 -0.1039619 0.05138084
v 0.2130009 -0.1039619 0.09130409
v 0.213001 -0.07734638 0.09130424
v 0.213001 -0.07734646 0.05138088
v -0.212846 -0.1705004 0.05138087
v -0.212846 -0.143885 0.0513809
v -0.212846 -0.1438849 0.09130418
v -0.212846 -0.1705004 0.09130403
v 0.2130015 -0.1704993 0.05138085
v 0.2130014 -0.1704993 0.0913041
v 0.2130014 -0.1438838 0.09130424
v 0.2130014 -0.1438839 0.05138088
v 0.213246 -0.2292208 0.1235799
v 0.2124154 -0.2440709 0.1233411
v 0.2129525 -0.2437711 0.1028281
v 0.2137833 -0.228921 0.1030669
v 0.2248579 -0.2522204 0.1235479
v 0.225395 -0.2519206 0.1030348
v 0.238131 -0.2455197 0.1239934
v 0.2386681 -0.2452199 0.1034804
v 0.2389616 -0.2306696 0.1242321
v 0.2394986 -0.2303698 0.1037191
v 0.2265191 -0.2225202 0.1240254
v 0.2270563 -0.2222203 0.1035125
v -0.2392168 -0.2292207 0.1235798
v -0.2400474 -0.2440708 0.123341
v -0.2395103 -0.243771 0.102828
v -0.2386795 -0.2289209 0.1030668
v -0.2276049 -0.2522202 0.1235478
v -0.2270678 -0.2519204 0.1030347
v -0.2143318 -0.2455196 0.1239933
v -0.2137947 -0.2452198 0.1034803
v -0.2135012 -0.2306695 0.124232
v -0.2129641 -0.2303697 0.1037191
v -0.2259437 -0.2225201 0.1240253
v -0.2254065 -0.2222202 0.1035124
v -0.2392168 0.06354952 0.1235798
v -0.2400474 0.04869942 0.123341
v -0.2395103 0.04899919 0.102828
v -0.2386795 0.06384933 0.1030669
v -0.2276049 0.04054996 0.1235478
v -0.2270678 0.04084978 0.1030348
v -0.2143318 0.04725058 0.1239933
v -0.2137947 0.04755038 0.1034803
v -0.2135012 0.06210068 0.1242321
v -0.2129641 0.06240049 0.1037191
v -0.2259437 0.07025015 0.1240253
v -0.2254065 0.07054996 0.1035124
vn 0.05623772 0.9980964 -0.02531568
vn -0.8364465 0.5474048 -0.02655776
vn -0.8926791 -0.4506912 -0.001247006
vn -0.05623246 -0.9980969 0.02530811
vn 0.8364437 -0.5474091 0.02655816
vn 0.8926786 0.4506922 0.001244399
vn -0.01460815 0.02617464 0.9995506
vn 0.01461 -0.02617538 -0.9995506
vn -1 8.133514E-07 -1.914492E-07
vn 1 2.644523E-08 1.243411E-06
vn -8.375475E-07 3.65666E-06 -1
vn 6.450927E-07 -7.906558E-06 1
vn 3.668484E-08 -1 -2.326858E-07
vn -2.3599E-08 1 -5.137945E-07
vn -6.001621E-09 1.164041E-06 -1
vn -1 7.049644E-14 -2.607085E-07
vn 3.23504E-07 6.657382E-07 -1
vn -2.797642E-07 -2.408382E-07 1
vn 1.703391E-09 -1 1.003577E-07
vn 3.927654E-14 1 -5.960467E-08
vn -7.564531E-08 -1.22756E-07 1
vn 0.3162285 0.948683 2.60237E-09
vn 8.73093E-08 2.406135E-07 -1
vn 0.9486832 0.3162282 2.258356E-07
vn -8.730946E-08 -2.181835E-06 1
vn 1 -7.346376E-14 2.690057E-07
vn 5.23176E-08 2.202622E-06 -1
vn -8.814885E-08 -1 -5.960464E-08
vn -0.3162264 0.9486838 -1.701538E-07
vn -4.065363E-08 -1.973852E-07 1
vn -2.576406E-08 -1 1.003577E-07
vn -0.9486835 0.3162274 -2.58681E-07
vn 3.090363E-07 -5.776424E-07 -1
vn 1 3.143822E-08 1.441262E-06
vn 3.056108E-08 -1.676623E-07 -1
vn -3.493506E-08 1.661018E-07 1
vn -3.904773E-08 1 3.591528E-07
vn 8.320461E-09 -1 -5.148738E-07
vn -1.107506E-07 -3.095138E-07 1
vn -0.3162276 -0.9486834 -4.635619E-07
vn 7.406019E-07 8.381061E-07 -1
vn -0.9486845 -0.3162242 -6.64689E-07
vn -8.74229E-08 2.052793E-06 1
vn -1 -1.434122E-07 -1.66889E-06
vn 2.973735E-07 -1.725785E-06 -1
vn -1.234243E-07 1 1.192093E-07
vn 0.3162249 -0.9486842 -9.245256E-07
vn -6.239615E-07 2.966095E-07 1
vn -1.811233E-08 1 5.990963E-07
vn 0.9486846 -0.3162239 -1.800178E-06
vn -1 1.343488E-06 -6.069723E-06
vn 1 -5.036927E-07 7.121685E-06
vn 5.04073E-06 4.729549E-06 -1
vn -5.233187E-06 -8.979447E-06 1
vn -4.934433E-07 -1 -1.245959E-06
vn 5.065335E-07 1 4.994788E-07
vn -1 -1.511861E-07 5.675047E-09
vn 1 9.90982E-07 1.046287E-06
vn -1.034675E-06 4.252707E-06 -1
vn 8.422245E-07 -8.502604E-06 1
vn 1.001222E-06 -1 -9.47942E-07
vn -9.881367E-07 1 2.014617E-07
vn -1 3.08825E-06 -1.156173E-06
vn 1 -2.248452E-06 2.208134E-06
vn 1.271794E-07 1.987732E-06 -1
vn -3.196438E-07 -6.237629E-06 1
vn -2.238216E-06 -1 1.257431E-06
vn 2.251302E-06 1 -2.003911E-06
vn -1 -1.702084E-06 -1.003583E-06
vn 1 2.541883E-06 2.055544E-06
vn -2.541895E-08 1.630104E-06 -1
vn -1.670251E-07 -5.880002E-06 1
vn 2.552119E-06 -1 1.61506E-06
vn -2.539032E-06 1 -2.36154E-06
vn -0.9980965 0.05623762 -0.02531618
vn -0.5474048 -0.8364465 -0.02655785
vn 0.4506912 -0.892679 -0.001246593
vn 0.9980969 -0.05623237 0.02530862
vn 0.5474091 0.8364437 0.02655825
vn -0.4506922 0.8926785 0.001243985
vn -0.02617524 -0.01460803 0.9995506
vn 0.02617599 0.01460988 -0.9995506
vn -0.9980965 0.05623787 -0.02531626
vn -0.547405 -0.8364464 -0.02655782
vn 0.450691 -0.8926792 -0.001246487
vn 0.9980969 -0.05623261 0.02530869
vn 0.5474092 0.8364436 0.02655822
vn -0.4506921 0.8926786 0.00124388
vn -0.0261753 -0.01460796 0.9995506
vn 0.02617605 0.0146098 -0.9995506
vn -0.9980965 0.05623787 -0.02531626
vn -0.547405 -0.8364464 -0.02655782
vn 0.450691 -0.8926792 -0.001246487
vn 0.9980969 -0.05623261 0.02530869
vn 0.5474092 0.8364436 0.02655822
vn -0.4506921 0.8926786 0.00124388
vn -0.0261753 -0.01460796 0.9995506
vn 0.02617605 0.0146098 -0.9995506
vt -0.007646678 0.002151061
vt -0.007128487 0.0007567152
vt -0.005204812 0.001471623
vt -0.005723009 0.002865972
vt -0.01461038 0.02104221
vt -0.01409519 0.01964675
vt -0.01216999 0.02035753
vt -0.01268518 0.02175298
vt -0.02097462 -0.006045561
vt -0.01948733 -0.006072063
vt -0.01945078 -0.004020172
vt -0.02093806 -0.003993663
vt 0.007128361 0.000756887
vt 0.007646556 0.002151232
vt 0.005722886 0.002866146
vt 0.005204694 0.0014718
vt 0.01409516 0.01964672
vt 0.01461035 0.02104218
vt 0.01268515 0.02175294
vt 0.01216996 0.0203575
vt 0.01948729 -0.006072173
vt 0.02097458 -0.006045676
vt 0.02093801 -0.003993783
vt 0.01945073 -0.004020284
vt 0.019276 0.01756033
vt 0.01853961 0.01626786
vt 0.01929072 0.0149839
vt 0.02077822 0.01499241
vt 0.02151461 0.01628487
vt 0.02076349 0.01756883
vt -0.02076347 0.01756884
vt -0.0215146 0.01628488
vt -0.02077821 0.01499243
vt -0.01929072 0.01498393
vt -0.01853961 0.01626788
vt -0.01927598 0.01756034
vt -0.01130193 0.01824434
vt -0.01284892 0.02041012
vt -0.01609762 0.01808963
vt -0.01455061 0.01592385
vt 0.01130195 0.01824437
vt 0.01455063 0.01592387
vt 0.01609764 0.01808965
vt 0.01284895 0.02041015
vt -0.03645111 -0.02501655
vt -0.01740668 0.01307244
vt -0.01978723 0.01426271
vt -0.03883167 -0.02382627
vt 0.03645111 -0.02501659
vt 0.03883167 -0.02382631
vt 0.01978728 0.01426269
vt 0.01740672 0.01307242
vt -0.014334 -0.03595024
vt -0.01057427 -0.037293
vt 0.003748513 0.002810854
vt -1.122714E-05 0.004153623
vt 0.01433397 -0.03595025
vt 1.120379E-05 0.004153614
vt -0.003748545 0.002810843
vt 0.01057422 -0.03729301
vt -0.0388317 -0.02382624
vt -0.04359281 -0.02144569
vt -0.04418796 -0.02561166
vt -0.04121226 -0.02858736
vt -0.0101417 0.02234391
vt -0.01772197 0.01692942
vt -0.002251988 -0.004728447
vt 0.005328276 0.0006860351
vt -0.0388317 -0.02382623
vt -0.01978723 0.01426273
vt -0.02454835 0.01664328
vt -0.04359282 -0.02144568
vt 0.03883171 -0.02382623
vt 0.04359283 -0.02144567
vt 0.02454835 0.01664329
vt 0.01978723 0.01426273
vt -0.01746713 -0.03483126
vt -0.008694408 -0.03796438
vt 0.005628403 0.002139458
vt -0.003144315 0.005272574
vt 0.01746713 -0.03483127
vt 0.003144316 0.005272574
vt -0.005628402 0.002139458
vt 0.008694408 -0.03796438
vt 0.01978723 0.01426273
vt 0.02454835 0.01664329
vt 0.02157265 0.01961899
vt 0.01740668 0.01902385
vt -0.001873434 -0.006979998
vt 0.006615912 -0.003144896
vt 0.004883391 0.0006901979
vt -0.003605956 -0.003144902
vt -0.02454835 0.01664329
vt -0.01978723 0.01426273
vt -0.01740667 0.01902385
vt -0.02157265 0.01961899
vt 0.01630009 0.01239406
vt 0.02007115 0.00387607
vt 0.02391917 0.005579658
vt 0.02014812 0.01409765
vt 0.01978725 0.01426272
vt 0.01740669 0.01902384
vt -0.006398921 0.007121054
vt -0.004018364 0.002359933
vt 0.01772197 0.01692942
vt 0.0101417 0.02234391
vt -0.005328277 0.0006860361
vt 0.002251987 -0.004728447
vt -0.01740668 0.01902384
vt -0.01978723 0.01426272
vt 0.004018381 0.002359927
vt 0.006398937 0.007121047
vt -0.003144364 0.005272592
vt 0.005628354 0.002139475
vt 0.007418705 0.007152454
vt -0.001354014 0.01028557
vt 0.0129185 -0.02461751
vt 0.004053195 -0.02747818
vt 0.005345514 -0.03148312
vt 0.01421081 -0.02862244
vt 0.04359283 -0.02144567
vt 0.03883171 -0.02382623
vt 0.04121227 -0.02858735
vt 0.04418797 -0.02561165
vt -0.008694408 -0.03796438
vt -0.01746713 -0.03483127
vt -0.01925748 -0.03984425
vt -0.01048476 -0.04297736
vt 0.0006393817 0.01008471
vt -0.001093143 0.01391981
vt -0.009582488 0.0100847
vt -0.007849968 0.006249608
vt 0.004018295 0.002359953
vt 0.008779408 -2.060838E-05
vt 0.009374565 0.004145386
vt 0.006398854 0.00712107
vt -0.00532816 0.0006860552
vt 0.002252094 -0.004728437
vt 0.01772202 0.01692947
vt 0.01014178 0.02234396
vt 0.004018297 0.002359954
vt -0.01502618 -0.03572899
vt -0.01026507 -0.03810956
vt 0.008779411 -2.060667E-05
vt -0.004018308 0.002359961
vt -0.008779423 -2.059743E-05
vt 0.01026506 -0.03810956
vt 0.01502618 -0.03572901
vt 0.00314434 0.005272571
vt -0.005628382 0.002139466
vt 0.008694431 -0.03796439
vt 0.01746714 -0.03483126
vt -0.003144335 0.005272566
vt -0.01746715 -0.03483127
vt -0.00869443 -0.03796439
vt 0.005628388 0.002139463
vt 0.01502618 -0.03572901
vt 0.01026506 -0.03810956
vt 0.01324077 -0.04108527
vt 0.01740673 -0.04049012
vt -0.009907725 -0.03305865
vt -0.01839707 -0.02922355
vt -0.0201296 -0.03305865
vt -0.01164025 -0.03689376
vt -0.01026506 -0.03810957
vt -0.01502617 -0.035729
vt -0.01740672 -0.04049012
vt -0.01324076 -0.04108528
vt -0.008603847 0.00898692
vt -0.012375 0.0004689724
vt -0.008526993 -0.001234652
vt -0.004755847 0.007283302
vt 0.01502619 -0.03572901
vt 0.01740675 -0.04049012
vt 0.04121235 -0.02858731
vt 0.03883179 -0.02382619
vt -0.002252109 -0.004728444
vt 0.005328144 0.0006860515
vt -0.0101418 0.02234394
vt -0.01772205 0.01692945
vt -0.01740676 -0.0404901
vt -0.0150262 -0.03572898
vt -0.0388318 -0.02382617
vt -0.04121236 -0.02858729
vt 0.01746719 -0.03483124
vt 0.008694478 -0.03796437
vt 0.01048483 -0.04297735
vt 0.01925754 -0.03984422
vt -0.004130711 0.002616132
vt 0.004734594 -0.0002445274
vt 0.006026919 0.003760424
vt -0.002838386 0.006621081
vt -0.008779425 -2.059645E-05
vt -0.00401831 0.002359962
vt -0.006398873 0.007121086
vt -0.009374579 0.0041454
vt -0.005628382 0.002139465
vt 0.003144339 0.005272571
vt 0.001353986 0.01028555
vt -0.007418741 0.007152448
vt -0.004104423 0.002414523
vt -0.00583694 -0.001420569
vt 0.002652408 -0.005255665
vt 0.004384927 -0.001420575
vt -0.00820808 0.01391259
vt -0.009755095 0.01607836
vt -0.01300377 0.01375784
vt -0.01145674 0.01159207
vt 0.008208091 0.01391263
vt 0.01145676 0.0115921
vt 0.01300379 0.01375786
vt 0.00975511 0.01607839
vt -0.03168996 -0.02739711
vt -0.01264548 0.01069186
vt -0.01502604 0.01188213
vt -0.03407051 -0.02620683
vt 0.03168995 -0.02739714
vt 0.03407051 -0.02620686
vt 0.01502608 0.01188212
vt 0.01264552 0.01069184
vt -0.01433416 -0.03595018
vt -0.01057444 -0.03729297
vt 0.003748599 0.002810794
vt -1.112999E-05 0.004153588
vt 0.01433413 -0.0359502
vt 1.111146E-05 0.00415358
vt -0.00374863 0.002810784
vt 0.01057439 -0.03729298
vt 0.002620955 -0.001247664
vt 0.001073955 0.0009181177
vt -0.002174735 -0.001402378
vt -0.0006277236 -0.003568155
vt -0.002620978 -0.001247604
vt 0.0006277023 -0.003568107
vt 0.002174717 -0.001402332
vt -0.001073974 0.0009181743
vt -0.01502613 -0.03572902
vt 0.004018265 0.002359981
vt 0.001637705 0.003550255
vt -0.01740669 -0.03453875
vt 0.0150261 -0.03572903
vt 0.01740667 -0.03453876
vt -0.001637673 0.003550262
vt -0.004018238 0.00235999
vt -0.01433402 -0.03595024
vt -0.01057429 -0.037293
vt 0.003748485 0.002810845
vt -1.12536E-05 0.004153613
vt 0.014334 -0.03595025
vt 1.124712E-05 0.004153612
vt -0.003748501 0.00281084
vt 0.01057426 -0.03729301
vt -0.004340449 0.008498308
vt -0.005887442 0.01066409
vt -0.009136141 0.008343613
vt -0.007589137 0.006177831
vt 0.004340448 0.008498352
vt 0.007589138 0.006177861
vt 0.009136144 0.008343642
vt 0.005887445 0.01066414
vt -0.0257387 -0.03037274
vt -0.006694158 0.00771618
vt -0.009074712 0.008906463
vt -0.02811926 -0.02918246
vt 0.02573869 -0.03037277
vt 0.02811925 -0.02918248
vt 0.00907475 0.008906458
vt 0.006694191 0.007716176
vt -0.01433404 -0.03595025
vt -0.01057431 -0.03729302
vt 0.003748498 0.002810816
vt -1.12389E-05 0.004153588
vt 0.01433401 -0.03595027
vt 1.122454E-05 0.004153582
vt -0.003748523 0.002810808
vt 0.01057426 -0.03729303
vt -0.0004730522 0.00308391
vt -0.002020052 0.005249692
vt -0.005268741 0.002929196
vt -0.00372173 0.0007634187
vt 0.0004730388 0.003083964
vt 0.003721719 0.0007634604
vt 0.005268733 0.002929234
vt 0.002020044 0.005249741
vt -0.01978721 -0.03334843
vt -0.0007428437 0.004740588
vt -0.003123405 0.00593086
vt -0.02216777 -0.03215815
vt 0.01978719 -0.03334844
vt 0.02216775 -0.03215817
vt 0.003123439 0.005930861
vt 0.0007428735 0.004740592
vt -0.01433398 -0.03595019
vt -0.01057424 -0.03729295
vt 0.003748518 0.0028109
vt -1.12207E-05 0.004153667
vt 0.01433395 -0.0359502
vt 1.121163E-05 0.004153662
vt -0.003748537 0.002810893
vt 0.01057421 -0.03729296
vt -0.003083337 -0.005589944
vt -0.002221467 -0.00680234
vt -0.0005488155 -0.005613284
vt -0.001410691 -0.004400888
vt 0.008041566 0.001455899
vt 0.008894844 0.002674358
vt 0.007213823 0.003851554
vt 0.006360549 0.002633098
vt 0.006186777 0.0002479382
vt 0.006681647 0.00165073
vt 0.004746323 0.002333453
vt 0.004251448 0.0009306703
vt 0.002221526 -0.006802379
vt 0.00308339 -0.005589979
vt 0.001410735 -0.00440093
vt 0.0005488744 -0.005613333
vt -0.008894857 0.002674315
vt -0.008041575 0.00145586
vt -0.00636057 0.002633064
vt -0.00721384 0.003851512
vt -0.006681628 0.001650732
vt -0.006186757 0.0002479399
vt -0.004251437 0.0009306821
vt -0.004746309 0.002333468
vt -0.004504929 0.003799117
vt -0.005789925 0.004548453
vt -0.007081368 0.00381028
vt -0.007087814 0.002322772
vt -0.005802816 0.001573437
vt -0.004511374 0.002311609
vt 0.004511369 0.002311625
vt 0.00580281 0.001573439
vt 0.007087802 0.002322777
vt 0.007081356 0.003810278
vt 0.005789912 0.004548448
vt 0.00450492 0.003799128
vt -0.0025847 -0.008335507
vt -0.00172283 -0.009547902
vt -5.017869E-05 -0.008358847
vt -0.0009120542 -0.00714645
vt -0.01269806 -0.03022436
vt -0.01184478 -0.0290059
vt -0.0135258 -0.0278287
vt -0.01437907 -0.02904716
vt -0.00612777 -0.03821944
vt -0.0056329 -0.03681666
vt -0.007568224 -0.03613393
vt -0.008063098 -0.03753671
vt 0.001722755 -0.009547554
vt 0.002584619 -0.008335155
vt 0.0009119638 -0.007146107
vt 5.010311E-05 -0.008358508
vt 0.01184483 -0.02900575
vt 0.01269811 -0.03022421
vt 0.01437911 -0.029047
vt 0.01352584 -0.02782855
vt 0.005632862 -0.03681665
vt 0.006127732 -0.03821944
vt 0.008063052 -0.0375367
vt 0.00756818 -0.03613391
vt 0.01571205 -0.03666193
vt 0.01442706 -0.0359126
vt 0.01313561 -0.03665077
vt 0.01312917 -0.03813828
vt 0.01441417 -0.03888762
vt 0.01570561 -0.03814944
vt -0.0157056 -0.03814944
vt -0.01441416 -0.03888762
vt -0.01312916 -0.03813828
vt -0.01313561 -0.03665078
vt -0.01442705 -0.03591261
vt -0.01571205 -0.03666193
vt -0.01917056 0.01573402
vt -0.01830869 0.01452162
vt -0.01663604 0.01571068
vt -0.01749792 0.01692308
vt -0.02224899 -0.04311735
vt -0.02139571 -0.0418989
vt -0.02307673 -0.0407217
vt -0.02393001 -0.04194016
vt -0.002143751 -0.02564033
vt -0.001648881 -0.02423754
vt -0.003584205 -0.02355482
vt -0.004079079 -0.0249576
vt 0.0183085 0.01452207
vt 0.01917036 0.01573446
vt 0.01749771 0.01692351
vt 0.01663585 0.01571111
vt 0.0213959 -0.0418988
vt 0.02224918 -0.04311725
vt 0.02393018 -0.04194005
vt 0.02307691 -0.0407216
vt 0.001648768 -0.02423753
vt 0.002143638 -0.02564032
vt 0.004078959 -0.02495758
vt 0.003584086 -0.02355479
vt 0.04190394 -0.02358729
vt 0.04061894 -0.02283795
vt 0.03932749 -0.02357613
vt 0.03932105 -0.02506363
vt 0.04060605 -0.02581297
vt 0.04189749 -0.02507479
vt -0.04189748 -0.0250748
vt -0.04060604 -0.02581299
vt -0.03932105 -0.02506365
vt -0.03932749 -0.02357615
vt -0.04061894 -0.02283798
vt -0.04190393 -0.0235873
o group1938750909
g mesh1938750909
usemtl mat17
f 4/4/1 3/3/1 2/2/1 1/1/1
f 3/8/2 6/7/2 5/6/2 2/5/2
f 6/12/3 8/11/3 7/10/3 5/9/3
f 8/16/4 10/15/4 9/14/4 7/13/4
f 10/20/5 12/19/5 11/18/5 9/17/5
f 12/24/6 4/23/6 1/22/6 11/21/6
f 1/30/7 2/29/7 5/28/7 7/27/7 9/26/7 11/25/7
f 12/36/8 10/35/8 8/34/8 6/33/8 3/32/8 4/31/8
f 96/304/75 95/303/75 94/302/75 93/301/75
f 95/308/76 98/307/76 97/306/76 94/305/76
f 98/312/77 100/311/77 99/310/77 97/309/77
f 100/316/78 102/315/78 101/314/78 99/313/78
f 102/320/79 104/319/79 103/318/79 101/317/79
f 104/324/80 96/323/80 93/322/80 103/321/80
f 93/330/81 94/329/81 97/328/81 99/327/81 101/326/81 103/325/81
f 104/336/82 102/335/82 100/334/82 98/333/82 95/332/82 96/331/82
f 108/340/83 107/339/83 106/338/83 105/337/83
f 107/344/84 110/343/84 109/342/84 106/341/84
f 110/348/85 112/347/85 111/346/85 109/345/85
f 112/352/86 114/351/86 113/350/86 111/349/86
f 114/356/87 116/355/87 115/354/87 113/353/87
f 116/360/88 108/359/88 105/358/88 115/357/88
f 105/366/89 106/365/89 109/364/89 111/363/89 113/362/89 115/361/89
f 116/372/90 114/371/90 112/370/90 110/369/90 107/368/90 108/367/90
f 120/376/91 119/375/91 118/374/91 117/373/91
f 119/380/92 122/379/92 121/378/92 118/377/92
f 122/384/93 124/383/93 123/382/93 121/381/93
f 124/388/94 126/387/94 125/386/94 123/385/94
f 126/392/95 128/391/95 127/390/95 125/389/95
f 128/396/96 120/395/96 117/394/96 127/393/96
f 117/402/97 118/401/97 121/400/97 123/399/97 125/398/97 127/397/97
f 128/408/98 126/407/98 124/406/98 122/405/98 119/404/98 120/403/98
usemtl mat15
f 16/40/9 15/39/9 14/38/9 13/37/9
f 20/44/10 19/43/10 18/42/10 17/41/10
f 14/48/11 20/47/11 17/46/11 13/45/11
f 18/52/12 19/51/12 15/50/12 16/49/12
f 17/56/13 18/55/13 16/54/13 13/53/13
f 15/60/14 19/59/14 20/58/14 14/57/14
f 24/64/15 23/63/15 22/62/15 21/61/15
f 28/68/16 27/67/16 26/66/16 25/65/16
f 22/72/17 29/71/17 25/70/17 21/69/17
f 26/76/18 32/75/18 31/74/18 30/73/18
f 25/80/19 26/79/19 30/78/19 21/77/19
f 31/84/20 32/83/20 29/82/20 22/81/20
f 34/88/21 33/87/21 32/86/21 26/85/21
f 33/92/22 35/91/22 29/90/22 32/89/22
f 35/96/23 36/95/23 25/94/23 29/93/23
f 35/100/24 33/99/24 34/98/24 36/97/24
f 27/104/25 37/103/25 34/102/25 26/101/25
f 37/108/26 38/107/26 36/106/26 34/105/26
f 38/112/27 28/111/27 25/110/27 36/109/27
f 38/116/28 37/115/28 27/114/28 28/113/28
f 23/120/29 39/119/29 31/118/29 22/117/29
f 39/124/30 40/123/30 30/122/30 31/121/30
f 40/128/31 24/127/31 21/126/31 30/125/31
f 40/132/32 39/131/32 23/130/32 24/129/32
f 44/136/33 43/135/33 42/134/33 41/133/33
f 48/140/34 47/139/34 46/138/34 45/137/34
f 42/144/35 49/143/35 45/142/35 41/141/35
f 46/148/36 52/147/36 51/146/36 50/145/36
f 45/152/37 46/151/37 50/150/37 41/149/37
f 51/156/38 52/155/38 49/154/38 42/153/38
f 54/160/39 53/159/39 52/158/39 46/157/39
f 53/164/40 55/163/40 49/162/40 52/161/40
f 55/168/41 56/167/41 45/166/41 49/165/41
f 55/172/42 53/171/42 54/170/42 56/169/42
f 47/176/43 57/175/43 54/174/43 46/173/43
f 57/180/44 58/179/44 56/178/44 54/177/44
f 58/184/45 48/183/45 45/182/45 56/181/45
f 58/188/46 57/187/46 47/186/46 48/185/46
f 43/192/47 59/191/47 51/190/47 42/189/47
f 59/196/48 60/195/48 50/194/48 51/193/48
f 60/200/49 44/199/49 41/198/49 50/197/49
f 60/204/50 59/203/50 43/202/50 44/201/50
f 64/208/51 63/207/51 62/206/51 61/205/51
f 68/212/52 67/211/52 66/210/52 65/209/52
f 62/216/53 68/215/53 65/214/53 61/213/53
f 66/220/54 67/219/54 63/218/54 64/217/54
f 65/224/55 66/223/55 64/222/55 61/221/55
f 63/228/56 67/227/56 68/226/56 62/225/56
f 72/232/57 71/231/57 70/230/57 69/229/57
f 76/236/58 75/235/58 74/234/58 73/233/58
f 70/240/59 76/239/59 73/238/59 69/237/59
f 74/244/60 75/243/60 71/242/60 72/241/60
f 73/248/61 74/247/61 72/246/61 69/245/61
f 71/252/62 75/251/62 76/250/62 70/249/62
f 80/256/63 79/255/63 78/254/63 77/253/63
f 84/260/64 83/259/64 82/258/64 81/257/64
f 78/264/65 84/263/65 81/262/65 77/261/65
f 82/268/66 83/267/66 79/266/66 80/265/66
f 81/272/67 82/271/67 80/270/67 77/269/67
f 79/276/68 83/275/68 84/274/68 78/273/68
f 88/280/69 87/279/69 86/278/69 85/277/69
f 92/284/70 91/283/70 90/282/70 89/281/70
f 86/288/71 92/287/71 89/286/71 85/285/71
f 90/292/72 91/291/72 87/290/72 88/289/72
f 89/296/73 90/295/73 88/294/73 85/293/73
f 87/300/74 91/299/74 92/298/74 86/297/74
